<svg width="24" height="24" viewBox="0 0 24 24" fill="none" xmlns="http://www.w3.org/2000/svg">
<path fill-rule="evenodd" clip-rule="evenodd" d="M19.125 12C19.1255 13.5464 18.5951 15.0461 17.6224 16.2482C16.6497 17.4503 15.2937 18.282 13.7813 18.6042C12.2688 18.9264 10.6916 18.7195 9.31343 18.0181C7.93526 17.3167 6.83971 16.1634 6.21 14.751L4.1235 15.5985C4.95063 17.4937 6.40505 19.0463 8.24223 19.9954C10.0794 20.9444 12.1873 21.232 14.2116 20.8097C16.2358 20.3875 18.053 19.2812 19.3575 17.6768C20.6621 16.0724 21.3745 14.0678 21.375 12C21.3751 10.1216 20.7874 8.29024 19.6944 6.7626C18.6014 5.23495 17.0578 4.08758 15.2799 3.48129C13.5021 2.87499 11.5791 2.84017 9.78041 3.38169C7.98176 3.92321 6.39762 5.01393 5.25 6.501V3.75H3V9.75L4.125 10.875H9.375V8.625H6.528C7.27066 7.33751 8.41751 6.33114 9.79058 5.76205C11.1636 5.19297 12.6862 5.093 14.1219 5.47765C15.5576 5.86231 16.8261 6.71007 17.7308 7.8894C18.6354 9.06873 19.1255 10.5137 19.125 12V12Z" fill="white"/>
</svg>
